<?xml version="1.0" encoding="UTF-8" standalone="no" ?>
<svg xmlns="http://www.w3.org/2000/svg" xmlns:xlink="http://www.w3.org/1999/xlink" version="1.1" width="1080" height="350" viewBox="0 0 1080 350" xml:space="preserve">
<g transform="matrix(1.02 0 0 1.02 540 175)"  >
<path style="stroke: rgb(0,0,0); stroke-width: 0; stroke-dasharray: none; stroke-linecap: butt; stroke-dashoffset: 0; stroke-linejoin: miter; stroke-miterlimit: 4; 
fill: #12BF37; 
fill-rule: nonzero; opacity: 1;" vector-effect="non-scaling-stroke"  transform=" translate(-512, -138.37)" d="M 140.803 258.904 C 125.399 261.609 109.72399999999999 262.42 93.509 264.58 L 44.051 119.724 L 44.051 270.797 C 28.647 272.418 14.594 274.58 0 276.742 L 0 0 L 41.08 0 L 97.292 157.021 L 97.292 0 L 140.803 0 z M 225.934 101.346 C 242.691 101.346 268.365 100.535 283.769 100.535 L 283.769 143.775 C 264.58 143.775 242.15 143.775 225.934 144.586 L 225.934 208.90800000000002 C 251.339 207.287 276.743 205.12300000000002 302.416 204.312 L 302.416 245.929 L 182.692 255.39000000000001 L 182.692 0 L 302.416 0 L 302.416 43.241 L 225.934 43.241 z M 463.21799999999996 43.242000000000004 L 418.35599999999994 43.242000000000004 L 418.35599999999994 242.15 C 403.76199999999994 242.15 389.16799999999995 242.15 375.11699999999996 242.689 L 375.11699999999996 43.242 L 330.25499999999994 43.242 L 330.25499999999994 0 L 463.22 0 z M 533.4839999999999 98.374 L 592.6709999999999 98.374 L 592.6709999999999 141.614 L 533.4839999999999 141.614 L 533.4839999999999 239.71800000000002 L 491.05099999999993 239.71800000000002 L 491.05099999999993 0 L 611.8589999999999 0 L 611.8589999999999 43.241 L 533.4839999999999 43.241 z M 682.1249999999999 201.881 C 706.7189999999999 202.42 731.5809999999999 204.315 755.6349999999999 205.664 L 755.6349999999999 248.36499999999998 C 716.9889999999999 245.93099999999998 678.3419999999999 243.50199999999998 638.8849999999999 242.689 L 638.8849999999999 0 L 682.1249999999999 0 z M 792.1189999999999 251.338 C 805.9019999999999 252.15 820.4959999999999 252.96099999999998 834.5489999999999 254.57999999999998 L 834.5489999999999 0 L 792.1189999999999 0 z M 1024 0 L 969.137 131.615 L 1024 276.742 C 1007.783 274.58000000000004 991.568 271.607 975.352 268.904 L 944.274 188.91 L 912.657 262.42 C 896.979 259.71500000000003 881.845 258.904 866.173 256.742 L 921.845 129.99200000000002 L 871.576 0 L 918.058 0 L 946.435 72.699 L 976.705 0 z" stroke-linecap="round" />
</g>
</svg>